# xmcd CD database file
#
# Track frame offsets:
#	150
#	14164
#	27902
#	38555
#	49065
#	62916
#	76338
#	87607
#	97066
#	107357
#
# Disc length: 1877 seconds
#
# Revision: 1
# Processed by: cddbd v1.5.2PL0 Copyright (c) Steve Scherf et al.
# Submitted via: CDex 1.70beta2
#
DISCID=7d07530a
DTITLE=The Stricklands - The Stricklands
DYEAR=2002
DGENRE=Blues
TTITLE0=Babysitter
TTITLE1=Ellen Says Aeh
TTITLE2=Enchantment Under The Sea
TTITLE3=The Dead Next Door
TTITLE4=Sami Beach
TTITLE5=Tonight
TTITLE6=Let's Dance Together
TTITLE7=Llewellin
TTITLE8=My Sweet Vision
TTITLE9=She Beats Me With A Baseball Bat
EXTD=YEAR: 2002
EXTT0=
EXTT1=
EXTT2=
EXTT3=
EXTT4=
EXTT5=
EXTT6=
EXTT7=
EXTT8=
EXTT9=
PLAYORDER=
